# xmcd CD database file
#
# Track frame offsets:
#	150
#	17011
#	33755
#	55456
#	80532
#	104103
#
# Disc length: 1586 seconds
#
# Revision: 0
# Processed by: cddbd v1.5.2PL0 Copyright (c) Steve Scherf et al.
# Submitted via: CDex 1.51
#
DISCID=47063006
DTITLE=die Liebe - die Liebe
DYEAR=2005
DGENRE=Blues
TTITLE0=Tangled up in Blue (Bob Dylan)
TTITLE1=Small Town (Jihn Cougar Mellencamp)
TTITLE2=Dead Flowers (Rolling Stones)
TTITLE3=Just like a Woman (Bob Dylan)
TTITLE4=La Cienega Just Smiled (Ryan Adams)
TTITLE5=Personal Jesus (Depeche Mode)
EXTD=YEAR: 2005
EXTT0=
EXTT1=
EXTT2=
EXTT3=
EXTT4=
EXTT5=
PLAYORDER=
